<svg width="36" height="36" viewBox="0 0 36 36" fill="none" xmlns="http://www.w3.org/2000/svg">
<path d="M30.4954 6.34183C28.1651 5.25152 25.6734 4.45913 23.0683 4.00793C22.7484 4.58635 22.3746 5.36433 22.117 5.98321C19.3477 5.56676 16.604 5.56676 13.8857 5.98321C13.6281 5.36433 13.2458 4.58635 12.923 4.00793C10.3152 4.45913 7.82063 5.25443 5.49029 6.34761C0.789964 13.4504 -0.484217 20.3768 0.152875 27.2048C3.27038 29.5329 6.29161 30.9471 9.26186 31.8726C9.99523 30.8632 10.6493 29.7903 11.2128 28.6595C10.1396 28.2518 9.11179 27.7486 8.14061 27.1644C8.39826 26.9735 8.65028 26.7739 8.89377 26.5686C14.8173 29.3392 21.2533 29.3392 27.1061 26.5686C27.3525 26.7739 27.6044 26.9735 27.8593 27.1644C26.8852 27.7514 25.8546 28.2546 24.7814 28.6624C25.3449 29.7903 25.9962 30.8662 26.7323 31.8754C29.7054 30.95 32.7295 29.5358 35.847 27.2048C36.5945 19.2894 34.57 12.4266 30.4954 6.34183ZM12.0198 23.0057C10.2416 23.0057 8.78333 21.3456 8.78333 19.3241C8.78333 17.3026 10.2104 15.6397 12.0198 15.6397C13.8291 15.6397 15.2873 17.2997 15.2562 19.3241C15.259 21.3456 13.8291 23.0057 12.0198 23.0057ZM23.9801 23.0057C22.2019 23.0057 20.7437 21.3456 20.7437 19.3241C20.7437 17.3026 22.1707 15.6397 23.9801 15.6397C25.7894 15.6397 27.2477 17.2997 27.2165 19.3241C27.2165 21.3456 25.7894 23.0057 23.9801 23.0057Z" fill="#5865F2"/>
</svg>
