<svg width="36" height="36" viewBox="0 0 36 36" fill="none" xmlns="http://www.w3.org/2000/svg">
<path fill-rule="evenodd" clip-rule="evenodd" d="M18.0529 19.6414L28.9517 27.7789H7.04826L17.9471 19.6414L18 19.6806L18.0529 19.6414Z" fill="#F7F5ED"/>
<path fill-rule="evenodd" clip-rule="evenodd" d="M7.0485 27.9291L18.0117 19.9697L17.9521 19.9272L17.9457 19.9317L17.9247 19.917C16.911 19.203 15.9017 18.4779 14.8948 17.7449C14.8947 17.7448 14.8946 17.7447 14.8945 17.7447C12.2748 15.8375 9.67134 13.8773 7.04826 11.9239V27.9293L7.0485 27.9291Z" fill="#F7F5ED"/>
<path fill-rule="evenodd" clip-rule="evenodd" d="M28.9517 27.7788H29.721C30.6995 27.7788 31.5 26.9783 31.5 25.9999V9.7931C31.5 8.81467 30.6995 8.01416 29.721 8.01416H28.9517V27.7788V27.7788Z" fill="#E75A4D"/>
<path fill-rule="evenodd" clip-rule="evenodd" d="M7.04827 27.9293H6.27893C5.30052 27.9293 4.49998 27.1288 4.49998 26.1504V9.79316C4.49998 8.81473 5.30049 8.01422 6.27893 8.01422H7.04827V27.9294V27.9293Z" fill="#E75A4D"/>
<path fill-rule="evenodd" clip-rule="evenodd" d="M18.0529 16.1517L28.9517 8.01416H7.04826L17.9471 16.1517L18 16.1125L18.0529 16.1517Z" fill="#F7F5ED"/>
<path fill-rule="evenodd" clip-rule="evenodd" d="M18.0118 19.9697L28.9518 27.7789V11.9239C27.1419 13.2717 25.3414 14.6228 23.5384 15.9574C21.8317 17.2207 20.1229 18.4693 18.4019 19.6865L18.4014 19.6869L18.0118 19.9697Z" fill="#B7B6AD"/>
<path d="M18.1078 19.9799L7.08945 27.9861L7.00708 27.8723L18.0255 19.8662L18.1078 19.9799Z" fill="#B7B6AD"/>
<path fill-rule="evenodd" clip-rule="evenodd" d="M18.0118 19.9698C13.8582 17.4956 8.55934 13.0236 4.50006 10.0358L5.70108 8.1532L7.01323 8.0459L7.04834 8.01422L17.9471 16.1517L18.0001 16.1125L18.053 16.1517L28.9518 8.01422L28.9869 8.0459L30.2991 8.1532L31.5001 10.0358C27.1097 13.2673 22.5271 17.0068 18.0118 19.9698Z" fill="#E75A4D"/>
</svg>
