<svg width="36" height="36" viewBox="0 0 36 36" fill="none" xmlns="http://www.w3.org/2000/svg">
<g clip-path="url(#clip0_59_6)">
<path d="M18.0087 0.27272C10.6066 0.27272 8.44175 0.280356 8.02094 0.315265C6.5019 0.441533 5.55665 0.680708 4.52687 1.19342C3.73325 1.5875 3.10736 2.0443 2.48965 2.68465C1.36469 3.85243 0.682891 5.28911 0.43608 6.99688C0.316084 7.82595 0.281176 7.99503 0.274085 12.2298C0.271358 13.6414 0.274085 15.4992 0.274085 17.991C0.274085 25.3871 0.282267 27.5498 0.31772 27.9698C0.440444 29.4479 0.672255 30.3779 1.16315 31.3951C2.1013 33.3424 3.89307 34.8041 6.00391 35.3496C6.7348 35.5377 7.54205 35.6414 8.57838 35.6905C9.01746 35.7096 13.4928 35.7232 17.9708 35.7232C22.4489 35.7232 26.9269 35.7177 27.3551 35.6959C28.555 35.6395 29.2518 35.5459 30.0223 35.3468C32.1468 34.7987 33.9058 33.3587 34.863 31.3842C35.3444 30.3915 35.5885 29.4261 35.6989 28.0252C35.7229 27.7197 35.733 22.8498 35.733 17.9864C35.733 13.1221 35.7221 8.26121 35.6981 7.95576C35.5863 6.53217 35.3422 5.57492 34.8453 4.56314C34.4376 3.73489 33.9849 3.11636 33.3276 2.48393C32.1547 1.3636 30.7202 0.681799 29.0108 0.435261C28.1825 0.315537 28.0175 0.280084 23.7795 0.27272H18.0087Z" fill="url(#paint0_radial_59_6)"/>
<path d="M18.0087 0.27272C10.6066 0.27272 8.44175 0.280356 8.02094 0.315265C6.5019 0.441533 5.55665 0.680708 4.52687 1.19342C3.73325 1.5875 3.10736 2.0443 2.48965 2.68465C1.36469 3.85243 0.682891 5.28911 0.43608 6.99688C0.316084 7.82595 0.281176 7.99503 0.274085 12.2298C0.271358 13.6414 0.274085 15.4992 0.274085 17.991C0.274085 25.3871 0.282267 27.5498 0.31772 27.9698C0.440444 29.4479 0.672255 30.3779 1.16315 31.3951C2.1013 33.3424 3.89307 34.8041 6.00391 35.3496C6.7348 35.5377 7.54205 35.6414 8.57838 35.6905C9.01746 35.7096 13.4928 35.7232 17.9708 35.7232C22.4489 35.7232 26.9269 35.7177 27.3551 35.6959C28.555 35.6395 29.2518 35.5459 30.0223 35.3468C32.1468 34.7987 33.9058 33.3587 34.863 31.3842C35.3444 30.3915 35.5885 29.4261 35.6989 28.0252C35.7229 27.7197 35.733 22.8498 35.733 17.9864C35.733 13.1221 35.7221 8.26121 35.6981 7.95576C35.5863 6.53217 35.3422 5.57492 34.8453 4.56314C34.4376 3.73489 33.9849 3.11636 33.3276 2.48393C32.1547 1.3636 30.7202 0.681799 29.0108 0.435261C28.1825 0.315537 28.0175 0.280084 23.7795 0.27272H18.0087Z" fill="url(#paint1_radial_59_6)"/>
<path d="M18.0005 4.90894C14.4454 4.90894 13.9992 4.92448 12.6029 4.98802C11.2093 5.05184 10.258 5.27247 9.42571 5.59619C8.56473 5.93054 7.83439 6.3778 7.10678 7.10569C6.37862 7.8333 5.93136 8.56364 5.59591 9.42434C5.27138 10.257 5.05048 11.2085 4.98775 12.6015C4.9253 13.9978 4.90894 14.4443 4.90894 17.9995C4.90894 21.5546 4.92475 21.9994 4.98802 23.3957C5.05211 24.7893 5.27274 25.7406 5.59619 26.5729C5.93081 27.4339 6.37807 28.1642 7.10596 28.8918C7.8333 29.62 8.56364 30.0684 9.42407 30.4027C10.257 30.7264 11.2085 30.9471 12.6018 31.0109C13.9981 31.0744 14.444 31.09 17.9989 31.09C21.5543 31.09 21.9991 31.0744 23.3955 31.0109C24.7891 30.9471 25.7414 30.7264 26.5743 30.4027C27.435 30.0684 28.1642 29.62 28.8916 28.8918C29.6197 28.1642 30.067 27.4339 30.4024 26.5732C30.7242 25.7406 30.9452 24.7891 31.0106 23.396C31.0733 21.9997 31.0897 21.5546 31.0897 17.9995C31.0897 14.4443 31.0733 13.9981 31.0106 12.6018C30.9452 11.2082 30.7242 10.257 30.4024 9.42462C30.067 8.56364 29.6197 7.8333 28.8916 7.10569C28.1634 6.37753 27.4353 5.93027 26.5735 5.59619C25.7389 5.27247 24.7872 5.05184 23.3936 4.98802C21.9972 4.92448 21.5527 4.90894 17.9964 4.90894H18.0005ZM16.8262 7.26796C17.1747 7.26741 17.5636 7.26796 18.0005 7.26796C21.4957 7.26796 21.91 7.2805 23.2902 7.34323C24.5665 7.40159 25.2592 7.61485 25.7207 7.79403C26.3316 8.0313 26.7671 8.31492 27.225 8.77309C27.6832 9.23126 27.9668 9.66761 28.2046 10.2785C28.3838 10.7394 28.5973 11.4321 28.6554 12.7084C28.7181 14.0884 28.7318 14.5029 28.7318 17.9964C28.7318 21.49 28.7181 21.9045 28.6554 23.2845C28.597 24.5608 28.3838 25.2535 28.2046 25.7144C27.9673 26.3253 27.6832 26.7603 27.225 27.2182C26.7668 27.6763 26.3318 27.96 25.7207 28.1972C25.2598 28.3772 24.5665 28.5899 23.2902 28.6483C21.9102 28.711 21.4957 28.7247 18.0005 28.7247C14.5051 28.7247 14.0908 28.711 12.7109 28.6483C11.4346 28.5894 10.7419 28.3761 10.2801 28.197C9.66925 27.9597 9.2329 27.6761 8.77473 27.2179C8.31656 26.7597 8.03293 26.3245 7.79512 25.7133C7.61594 25.2524 7.40241 24.5597 7.34432 23.2834C7.28159 21.9034 7.26905 21.4889 7.26905 17.9932C7.26905 14.4975 7.28159 14.0851 7.34432 12.7052C7.40268 11.4288 7.61594 10.7361 7.79512 10.2747C8.03239 9.66379 8.31656 9.22744 8.77473 8.76927C9.2329 8.31111 9.66925 8.02748 10.2801 7.78967C10.7416 7.60967 11.4346 7.39695 12.7109 7.33832C13.9185 7.28377 14.3865 7.26741 16.8262 7.26468V7.26796ZM24.9881 9.44153C24.1209 9.44153 23.4173 10.1443 23.4173 11.0118C23.4173 11.8791 24.1209 12.5827 24.9881 12.5827C25.8554 12.5827 26.559 11.8791 26.559 11.0118C26.559 10.1446 25.8554 9.44098 24.9881 9.44098V9.44153ZM18.0005 11.2769C14.288 11.2769 11.278 14.2869 11.278 17.9995C11.278 21.712 14.288 24.7206 18.0005 24.7206C21.7131 24.7206 24.722 21.712 24.722 17.9995C24.722 14.2869 21.7131 11.2769 18.0005 11.2769ZM18.0005 13.6359C20.4103 13.6359 22.364 15.5894 22.364 17.9995C22.364 20.4092 20.4103 22.363 18.0005 22.363C15.5905 22.363 13.637 20.4092 13.637 17.9995C13.637 15.5894 15.5905 13.6359 18.0005 13.6359Z" fill="white"/>
</g>
<defs>
<radialGradient id="paint0_radial_59_6" cx="0" cy="0" r="1" gradientUnits="userSpaceOnUse" gradientTransform="translate(9.69202 38.4536) rotate(-90) scale(35.134 32.6863)">
<stop stop-color="#FFDD55"/>
<stop offset="0.1" stop-color="#FFDD55"/>
<stop offset="0.5" stop-color="#FF543E"/>
<stop offset="1" stop-color="#C837AB"/>
</radialGradient>
<radialGradient id="paint1_radial_59_6" cx="0" cy="0" r="1" gradientUnits="userSpaceOnUse" gradientTransform="translate(-5.66689 2.82651) rotate(78.6776) scale(15.7052 64.7539)">
<stop stop-color="#3771C8"/>
<stop offset="0.128" stop-color="#3771C8"/>
<stop offset="1" stop-color="#6600FF" stop-opacity="0"/>
</radialGradient>
<clipPath id="clip0_59_6">
<rect width="36" height="35.9989" fill="white"/>
</clipPath>
</defs>
</svg>
