<svg width="37" height="43" viewBox="0 0 37 43" fill="none" xmlns="http://www.w3.org/2000/svg">
<path d="M12.4155 19.1998V17.9117C11.9376 17.8485 11.4561 17.8158 10.974 17.8138C5.07783 17.8138 0.279953 22.3039 0.279953 27.823C0.279953 31.208 2.08815 34.2055 4.84552 36.0171C2.99919 34.1691 1.972 31.7333 1.97373 29.203C1.97373 23.7628 6.63465 19.3264 12.4155 19.1998Z" fill="#00F2EA"/>
<path d="M12.699 33.4166C15.192 33.4166 17.2247 31.4464 17.3174 28.9898L17.3261 7.06601H21.3568C21.2705 6.60843 21.2267 6.14386 21.2259 5.67822L15.7216 5.67822L15.7121 27.6028C15.6202 30.0577 13.5857 32.028 11.0936 32.028C10.3459 32.028 9.60943 31.8466 8.94734 31.4992C9.37638 32.0929 9.94016 32.5762 10.5924 32.9095C11.2445 33.2429 11.9665 33.4167 12.699 33.4166ZM28.8843 14.5077V13.289C27.4046 13.2906 25.9562 12.8627 24.7149 12.0572C25.8044 13.3024 27.2664 14.162 28.8843 14.5077Z" fill="#00F2EA"/>
<path d="M24.5511 12.3684C23.3407 11.001 22.6722 9.23803 22.6718 7.41187H21.2008C21.3933 8.42228 21.7896 9.38287 22.3656 10.235C22.9417 11.0872 23.6853 11.8131 24.5511 12.3684ZM10.9636 23.0711C8.41511 23.0745 6.35033 25.1176 6.34773 27.6392C6.35039 28.4752 6.5825 29.2943 7.01874 30.0074C7.45498 30.7204 8.07862 31.3 8.82165 31.683C8.25467 30.9105 7.94861 29.9775 7.94789 29.0192C7.95049 26.4968 10.0153 24.4528 12.5637 24.4502C13.0405 24.4502 13.4956 24.5282 13.9264 24.6617V19.114C13.4749 19.0505 13.0197 19.0175 12.5637 19.0152C12.484 19.0152 12.4051 19.0204 12.3262 19.0213V23.2826C11.8853 23.1437 11.4259 23.0724 10.9636 23.0711Z" fill="#FF004F"/>
<path d="M28.151 15.2133V19.4469C25.4128 19.451 22.7418 18.599 20.5117 17.0102V28.077C20.5117 33.6048 15.9782 38.1018 10.4062 38.1018C8.25214 38.1018 6.25498 37.4275 4.61407 36.2841C5.56136 37.2954 6.70631 38.1013 7.97793 38.6518C9.24954 39.2023 10.6207 39.4857 12.0064 39.4844C17.5792 39.4844 22.1127 34.9873 22.1127 29.4605V18.3928C24.3429 19.9813 27.0139 20.8329 29.752 20.8286V15.3823C29.2139 15.3822 28.6773 15.3255 28.151 15.2133Z" fill="#FF004F"/>
<path d="M21.0656 27.7129V16.628C23.3606 18.2233 26.0902 19.0754 28.8852 19.0689V14.8302C27.2417 14.49 25.7498 13.6335 24.6274 12.3857C22.8313 11.2528 21.5917 9.45584 21.1982 7.41187H17.0834L17.0747 29.2689C16.9794 31.7168 14.9033 33.681 12.3592 33.681C10.8388 33.6793 9.4137 32.9685 8.52781 31.7705C6.97272 30.9791 5.99754 29.4162 5.99668 27.7121C5.99928 25.1809 8.11173 23.1309 10.7209 23.1274C11.2063 23.1274 11.6727 23.2054 12.1147 23.3398V19.0637C6.52284 19.1912 2.01361 23.6406 2.01361 29.0964C2.01361 31.7359 3.07027 34.1378 4.79179 35.9313C6.53991 37.1209 8.60641 37.755 10.7209 37.7508C16.4246 37.7508 21.0656 33.2476 21.0656 27.7129Z" fill="white"/>
</svg>
