<svg width="36" height="30" viewBox="0 0 36 30" fill="none" xmlns="http://www.w3.org/2000/svg">
<path d="M32.3144 7.28241C32.3364 7.59978 32.3364 7.91714 32.3364 8.23743C32.3364 17.9969 24.9068 29.2524 11.3214 29.2524V29.2466C7.30823 29.2524 3.37843 28.1029 0 25.9354C0.583547 26.0056 1.17002 26.0407 1.75795 26.0422C5.08373 26.0451 8.31444 24.9292 10.9309 22.8744C7.77038 22.8144 4.9989 20.7537 4.03071 17.7453C5.13784 17.9588 6.27861 17.9149 7.36527 17.6181C3.91956 16.9219 1.44059 13.8945 1.44059 10.3786V10.285C2.46728 10.8568 3.61682 11.1742 4.79269 11.2093C1.54735 9.04036 0.546984 4.72299 2.50676 1.34749C6.25667 5.96175 11.7894 8.76687 17.7287 9.06376C17.1335 6.4985 17.9466 3.81038 19.8654 2.00709C22.8402 -0.789257 27.5188 -0.645929 30.3152 2.32738C31.9693 2.00124 33.5547 1.39429 35.0055 0.534327C34.4541 2.24402 33.3002 3.6963 31.7587 4.61915C33.2227 4.44658 34.653 4.05462 36 3.45645C35.0084 4.94237 33.7594 6.2367 32.3144 7.28241Z" fill="#1D9BF0"/>
</svg>
